<svg width="80.000000" height="80.000000" viewBox="0 0 80 80" fill="none" xmlns="http://www.w3.org/2000/svg" xmlns:xlink="http://www.w3.org/1999/xlink">
	<desc>
			Created with Pixso.
	</desc>
	<defs>
		<clipPath id="clip3104_3235">
			<rect width="80.000000" height="80.000000" fill="white" fill-opacity="0"/>
		</clipPath>
	</defs>
	<g clip-path="url(#clip3104_3235)">
		<path d="M23.9 56.66C25.6 56.66 27.16 55.7 27.9 54.2L32.63 44.73C33.1 43.79 33.33 42.79 33.33 41.76L33.33 26.66C33.33 24.83 31.83 23.33 30 23.33L16.66 23.33C14.83 23.33 13.33 24.83 13.33 26.66L13.33 39.99C13.33 41.83 14.83 43.33 16.66 43.33L23.33 43.33L19.9 50.2C18.4 53.16 20.56 56.66 23.9 56.66ZM57.23 56.66C58.93 56.66 60.5 55.7 61.23 54.2L65.96 44.73C66.43 43.79 66.66 42.79 66.66 41.76L66.66 26.66C66.66 24.83 65.16 23.33 63.33 23.33L50 23.33C48.16 23.33 46.66 24.83 46.66 26.66L46.66 39.99C46.66 41.83 48.16 43.33 50 43.33L56.66 43.33L53.23 50.2C51.73 53.16 53.9 56.66 57.23 56.66Z" fill="#12CCF4" fill-opacity="0.300000" fill-rule="nonzero"/>
	</g>
</svg>
